Coordinates
version=1
nRows=12
nColumns=33
inDegrees=yes

Units are S.I. units (second, meters, Newtons, ...)
Angles are in degrees.

endheader
time	ground_thorax_rot_x	ground_thorax_rot_y	ground_thorax_rot_z	ground_thorax_tx	ground_thorax_ty	ground_thorax_tz	clav_prot_r	clav_elev_r	scapula_abduction_r	scapula_elevation_r	scapula_upward_rot_r	scapula_winging_r	shoulder_elv_r	plane_of_elev_r	axial_rot_r	elbow_flexion_r	pro_sup_r	wrist_flex_r	wrist_dev_r	clav_prot_l	clav_elev_l	scapula_abduction_l	scapula_elevation_l	scapula_upward_rot_l	scapula_winging_l	shoulder_elv_l	plane_of_elev_l	axial_rot_l	elbow_flexion_l	pro_sup_l	wrist_flex_l	wrist_dev_l
      2.97000000	     14.21874378	     44.85515337	     17.29722975	     -0.01654024	      1.02624396	     -0.06502126	    -22.63076567	     20.37913079	    -16.69583080	     13.48138911	     41.42906388	    -13.80194131	     67.14969021	    -72.31460954	     89.57040400	     70.26623858	    -35.72190505	     10.88373895	     -6.06086608	     24.00193821	    -21.12165756	    -45.00000000	      4.08883040	    -18.97675902	     14.83238209	     29.02536871	     -9.91174132	    -18.87652655	     42.24821194	      0.93788643	     29.91545531	     -0.13872978
      2.98000000	     14.12683079	     45.04922359	     17.28520295	     -0.01680028	      1.02636630	     -0.06503298	    -22.74571364	     20.18133300	    -16.82443415	     13.32118938	     41.35564543	    -13.84416074	     66.22880867	    -72.14385722	     88.46992809	     69.71653861	    -36.09338550	     10.56386902	     -5.76598189	     24.06163075	    -21.34555136	    -45.00000000	      4.12878388	    -19.37686974	     14.71138124	     29.06879480	     -9.20964397	    -18.16158611	     41.43355746	      0.82235037	     30.10844336	      0.03012453
      2.99000000	     14.39856650	     45.18238236	     17.25950870	     -0.01734006	      1.02508908	     -0.06479650	    -22.51188915	     21.28706409	    -17.08758214	     14.21910965	     41.53527344	    -13.66598688	     61.28545201	    -71.96278240	     83.79048345	     68.79999868	    -37.52951717	     10.26737424	     -5.47043179	     24.25212857	    -21.71043281	    -45.00000000	      3.61628096	    -21.64257261	     14.60073542	     30.14829570	     -6.82377350	    -17.90790419	     40.68248908	      0.64030934	     31.18159820	      0.47534613
      3.00000000	     14.21668504	     45.31054201	     17.41386154	     -0.01759494	      1.02533080	     -0.06496520	    -22.52876380	     20.98704538	    -16.93481440	     13.98115774	     41.47675282	    -13.69789003	     61.05442858	    -71.88758002	     83.74359406	     68.13919153	    -37.55428821	     10.07899057	     -5.54225346	     24.28785744	    -21.94529803	    -45.00000000	      3.79017949	    -21.69124912	     14.45491148	     30.15444614	     -6.76352789	    -17.72198478	     40.18981141	      0.71777753	     30.94228991	      0.56302537
      3.01000000	     13.95645446	     45.32428568	     17.42652727	     -0.01763559	      1.02577446	     -0.06496091	    -22.74337773	     20.52935057	    -16.93840348	     13.57833071	     41.51773791	    -13.83961721	     60.44158214	    -71.63188595	     83.25201204	     67.47819670	    -37.74843651	      9.88868788	     -5.32899998	     24.31175476	    -22.05278065	    -45.00000000	      3.81527419	    -21.86551434	     14.39361878	     30.13846718	     -6.39534275	    -16.86143718	     39.51896360	      0.63185751	     30.71401085	      0.59402917
      3.02000000	     14.18341429	     45.51278823	     17.35296795	     -0.01810164	      1.02475583	     -0.06487066	    -22.59398525	     21.29915256	    -17.16362598	     14.20522510	     41.63065199	    -13.71437446	     56.92789942	    -71.37446364	     79.81029852	     66.61524667	    -39.09499081	      9.66704480	     -4.73754867	     24.41241552	    -22.31899217	    -45.00000000	      3.52795675	    -23.26862645	     14.29166442	     30.64468924	     -4.58113967	    -16.38786608	     38.50620364	      0.41272268	     31.72114790	      0.95403027
      3.03000000	     14.01925488	     45.52056768	     17.36014987	     -0.01823323	      1.02495644	     -0.06493759	    -22.60309181	     21.34142617	    -17.03247848	     14.20660601	     41.82381548	    -13.76852387	     54.70102342	    -71.22889039	     78.21254439	     65.57790634	    -39.41296849	      9.73812672	     -4.98211273	     24.46063910	    -22.48710564	    -45.00000000	      3.42584195	    -23.92653211	     14.22381897	     30.93888832	     -3.85736444	    -15.86403673	     38.02679704	      0.55396887	     31.15950048	      0.99581761
      3.04000000	     13.93562548	     45.65126046	     17.50657844	     -0.01848773	      1.02494720	     -0.06505325	    -22.58846088	     21.10461103	    -16.92863888	     14.03243838	     41.70509750	    -13.75922880	     54.55532640	    -71.07380607	     78.11360859	     64.96231873	    -39.50885189	      9.47340654	     -4.94105172	     24.49808951	    -22.72946389	    -45.00000000	      3.60988643	    -23.96595024	     14.06277311	     30.92292463	     -3.78216529	    -15.77197996	     37.47964269	      0.59721052	     31.17368166	      1.12502618
      3.05000000	     13.62503623	     45.71445069	     17.54264255	     -0.01863903	      1.02537487	     -0.06502123	    -22.83088592	     20.65082401	    -17.08076362	     13.64801232	     41.64178136	    -13.88197123	     53.91321458	    -70.66354720	     77.52959018	     64.28216021	    -39.93800678	      9.12388465	     -4.45749824	     24.52051054	    -22.84385680	    -45.00000000	      3.63381983	    -24.15735924	     13.99553496	     30.96765148	     -3.31158956	    -14.77889250	     36.66000313	      0.41210150	     31.30623390	      1.21309061
      3.06000000	     13.61020528	     45.86288802	     17.59338290	     -0.01893046	      1.02535342	     -0.06530806	    -22.76026318	     20.49028511	    -16.96451370	     13.54907158	     41.49072928	    -13.84097477	     53.66445789	    -70.46969313	     77.38925861	     63.68753177	    -40.08726028	      8.91840041	     -4.41297230	     24.56105605	    -23.10305157	    -45.00000000	      3.82183853	    -24.22188196	     13.83341325	     30.96578473	     -3.11314481	    -14.74736450	     36.07949536	      0.48148131	     31.32693641	      1.39024175
      3.07000000	     13.80045767	     46.06097942	     17.46586876	     -0.01927176	      1.02433430	     -0.06507147	    -22.72350737	     21.41808473	    -17.29247870	     14.25120288	     41.85236019	    -13.79498723	     49.57238680	    -70.07725203	     73.71238436	     62.55802788	    -42.57499371	      8.97464472	     -3.65136590	     24.64603172	    -23.36264084	    -45.00000000	      3.27034005	    -26.32596064	     13.75414884	     31.88121759	     -0.52271808	    -13.80890327	     34.86596942	      0.17804938	     32.53844643	      1.90423312
      3.08000000	     13.44868174	     46.03661476	     17.61873563	     -0.01944369	      1.02493288	     -0.06509642	    -22.79551959	     20.96432994	    -17.10105028	     13.87863951	     41.81421747	    -13.87321454	     48.87265296	    -69.86907925	     73.48833712	     61.70378784	    -42.62871660	      8.75060240	     -3.94107960	     24.67649446	    -23.54438550	    -45.00000000	      3.34397667	    -26.53069824	     13.64370597	     32.14534008	     -0.44840524	    -13.35742361	     34.50645358	      0.23937562	     32.02627618	      1.84937755
